<?xml version="1.0" encoding="utf-8"?>
<!-- Generator: Adobe Illustrator 19.1.0, SVG Export Plug-In . SVG Version: 6.00 Build 0)  -->
<svg version="1.1" id="Layer_1" xmlns="http://www.w3.org/2000/svg" xmlns:xlink="http://www.w3.org/1999/xlink" x="0px" y="0px"
	 viewBox="0 0 392 700" style="enable-background:new 0 0 392 700;" xml:space="preserve">
<style type="text/css">
	.st0{fill:#00bbd3;}
</style>
<polygon class="st0" points="171.2,119.1 239.5,2.2 306.7,119.1 "/>
<polygon class="st0" points="306.7,138.9 238.3,255.8 171.2,138.9 "/>
<polygon class="st0" points="86.8,266.3 155.1,149.3 222.2,266.3 "/>
<polygon class="st0" points="222.2,286 153.9,403 86.8,286 "/>
<polygon class="st0" points="171.2,413.1 239.5,296.2 306.7,413.1 "/>
<polygon class="st0" points="306.7,432.9 238.3,549.9 171.2,432.9 "/>
<polygon class="st0" points="86.8,561.1 155.1,444.1 222.2,561.1 "/>
<polygon class="st0" points="222.2,580.9 153.9,697.8 86.8,580.9 "/>
<polygon class="st0" points="1.2,413.1 69.5,296.2 136.6,413.1 "/>
<polygon class="st0" points="392,286 323.7,403 256.5,286 "/>
</svg>
